<mxfile host="app.diagrams.net" modified="2021-09-01T02:39:32.484Z" agent="5.0 (Macintosh; Intel Mac OS X 10_15_7) AppleWebKit/537.36 (KHTML, like Gecko) Chrome/92.0.4515.159 Safari/537.36" etag="8oHnb021H09TkcrXfSqY" version="15.0.4" type="github">
  <diagram id="4YhJOPpCHaPX1mCRJyEk" name="Page-1">
    <mxGraphModel dx="732" dy="717" grid="1" gridSize="10" guides="1" tooltips="1" connect="1" arrows="1" fold="1" page="1" pageScale="1" pageWidth="827" pageHeight="1169" math="0" shadow="0">
      <root>
        <mxCell id="0" />
        <mxCell id="1" parent="0" />
        <mxCell id="ciZTscVw7ovVxDEkbBO5-1" value="int driver_register()" style="rounded=0;whiteSpace=wrap;html=1;" vertex="1" parent="1">
          <mxGeometry x="70" y="60" width="200" height="40" as="geometry" />
        </mxCell>
        <mxCell id="ciZTscVw7ovVxDEkbBO5-20" style="edgeStyle=orthogonalEdgeStyle;rounded=0;orthogonalLoop=1;jettySize=auto;html=1;exitX=1;exitY=0.5;exitDx=0;exitDy=0;entryX=0.5;entryY=0;entryDx=0;entryDy=0;" edge="1" parent="1" source="ciZTscVw7ovVxDEkbBO5-2" target="ciZTscVw7ovVxDEkbBO5-6">
          <mxGeometry relative="1" as="geometry" />
        </mxCell>
        <mxCell id="ciZTscVw7ovVxDEkbBO5-2" value="bus_add_driver()" style="rounded=0;whiteSpace=wrap;html=1;" vertex="1" parent="1">
          <mxGeometry x="270" y="160" width="200" height="40" as="geometry" />
        </mxCell>
        <mxCell id="ciZTscVw7ovVxDEkbBO5-23" style="edgeStyle=orthogonalEdgeStyle;rounded=0;orthogonalLoop=1;jettySize=auto;html=1;exitX=0.5;exitY=1;exitDx=0;exitDy=0;entryX=0.5;entryY=0;entryDx=0;entryDy=0;" edge="1" parent="1" source="ciZTscVw7ovVxDEkbBO5-3" target="ciZTscVw7ovVxDEkbBO5-5">
          <mxGeometry relative="1" as="geometry" />
        </mxCell>
        <mxCell id="ciZTscVw7ovVxDEkbBO5-3" value="driver_add_groups()" style="rounded=0;whiteSpace=wrap;html=1;" vertex="1" parent="1">
          <mxGeometry x="270" y="560" width="200" height="40" as="geometry" />
        </mxCell>
        <mxCell id="ciZTscVw7ovVxDEkbBO5-5" value="kobject_uevent(,KOBJ_ADD)" style="rounded=0;whiteSpace=wrap;html=1;" vertex="1" parent="1">
          <mxGeometry x="270" y="630" width="200" height="40" as="geometry" />
        </mxCell>
        <mxCell id="ciZTscVw7ovVxDEkbBO5-6" value="priv-&amp;gt;kobj.kset=bus-&amp;gt;p-&amp;gt;drivers_kset" style="rounded=0;whiteSpace=wrap;html=1;" vertex="1" parent="1">
          <mxGeometry x="530" y="190" width="230" height="40" as="geometry" />
        </mxCell>
        <mxCell id="ciZTscVw7ovVxDEkbBO5-7" value="kobject_init_and_add" style="rounded=0;whiteSpace=wrap;html=1;" vertex="1" parent="1">
          <mxGeometry x="530" y="260" width="230" height="40" as="geometry" />
        </mxCell>
        <mxCell id="ciZTscVw7ovVxDEkbBO5-8" value="klist_add_tail" style="rounded=0;whiteSpace=wrap;html=1;" vertex="1" parent="1">
          <mxGeometry x="530" y="330" width="230" height="40" as="geometry" />
        </mxCell>
        <mxCell id="ciZTscVw7ovVxDEkbBO5-9" value="async_schedule(driver_attach_async,drv)" style="rounded=0;whiteSpace=wrap;html=1;" vertex="1" parent="1">
          <mxGeometry x="530" y="400" width="230" height="40" as="geometry" />
        </mxCell>
        <mxCell id="ciZTscVw7ovVxDEkbBO5-10" value="driver_create_file" style="rounded=0;whiteSpace=wrap;html=1;" vertex="1" parent="1">
          <mxGeometry x="530" y="470" width="230" height="40" as="geometry" />
        </mxCell>
        <mxCell id="ciZTscVw7ovVxDEkbBO5-11" value="Finish" style="ellipse;whiteSpace=wrap;html=1;" vertex="1" parent="1">
          <mxGeometry x="110" y="750" width="120" height="80" as="geometry" />
        </mxCell>
        <mxCell id="ciZTscVw7ovVxDEkbBO5-12" value="" style="endArrow=none;dashed=1;html=1;entryX=0.5;entryY=1;entryDx=0;entryDy=0;exitX=0.5;exitY=0;exitDx=0;exitDy=0;" edge="1" parent="1" source="ciZTscVw7ovVxDEkbBO5-11" target="ciZTscVw7ovVxDEkbBO5-1">
          <mxGeometry width="50" height="50" relative="1" as="geometry">
            <mxPoint x="250" y="370" as="sourcePoint" />
            <mxPoint x="300" y="320" as="targetPoint" />
          </mxGeometry>
        </mxCell>
        <mxCell id="ciZTscVw7ovVxDEkbBO5-13" value="" style="endArrow=classic;html=1;entryX=0.5;entryY=0;entryDx=0;entryDy=0;exitX=1;exitY=0.5;exitDx=0;exitDy=0;" edge="1" parent="1" source="ciZTscVw7ovVxDEkbBO5-1" target="ciZTscVw7ovVxDEkbBO5-2">
          <mxGeometry width="50" height="50" relative="1" as="geometry">
            <mxPoint x="250" y="170" as="sourcePoint" />
            <mxPoint x="300" y="120" as="targetPoint" />
            <Array as="points">
              <mxPoint x="370" y="80" />
            </Array>
          </mxGeometry>
        </mxCell>
        <mxCell id="ciZTscVw7ovVxDEkbBO5-14" value="" style="endArrow=none;dashed=1;html=1;entryX=0.5;entryY=1;entryDx=0;entryDy=0;exitX=0.5;exitY=0;exitDx=0;exitDy=0;" edge="1" parent="1" source="ciZTscVw7ovVxDEkbBO5-3" target="ciZTscVw7ovVxDEkbBO5-2">
          <mxGeometry width="50" height="50" relative="1" as="geometry">
            <mxPoint x="250" y="300" as="sourcePoint" />
            <mxPoint x="300" y="250" as="targetPoint" />
          </mxGeometry>
        </mxCell>
        <mxCell id="ciZTscVw7ovVxDEkbBO5-15" value="" style="endArrow=none;dashed=1;html=1;entryX=0.5;entryY=1;entryDx=0;entryDy=0;exitX=0.5;exitY=0;exitDx=0;exitDy=0;" edge="1" parent="1" source="ciZTscVw7ovVxDEkbBO5-7" target="ciZTscVw7ovVxDEkbBO5-6">
          <mxGeometry width="50" height="50" relative="1" as="geometry">
            <mxPoint x="250" y="600" as="sourcePoint" />
            <mxPoint x="300" y="550" as="targetPoint" />
          </mxGeometry>
        </mxCell>
        <mxCell id="ciZTscVw7ovVxDEkbBO5-16" value="" style="endArrow=none;dashed=1;html=1;dashPattern=1 3;strokeWidth=2;entryX=0.5;entryY=1;entryDx=0;entryDy=0;exitX=0.5;exitY=0;exitDx=0;exitDy=0;" edge="1" parent="1" source="ciZTscVw7ovVxDEkbBO5-8" target="ciZTscVw7ovVxDEkbBO5-7">
          <mxGeometry width="50" height="50" relative="1" as="geometry">
            <mxPoint x="540" y="370" as="sourcePoint" />
            <mxPoint x="590" y="320" as="targetPoint" />
          </mxGeometry>
        </mxCell>
        <mxCell id="ciZTscVw7ovVxDEkbBO5-17" value="" style="endArrow=none;dashed=1;html=1;dashPattern=1 3;strokeWidth=2;entryX=0.5;entryY=1;entryDx=0;entryDy=0;exitX=0.5;exitY=0;exitDx=0;exitDy=0;" edge="1" parent="1" source="ciZTscVw7ovVxDEkbBO5-9" target="ciZTscVw7ovVxDEkbBO5-8">
          <mxGeometry width="50" height="50" relative="1" as="geometry">
            <mxPoint x="540" y="370" as="sourcePoint" />
            <mxPoint x="590" y="320" as="targetPoint" />
          </mxGeometry>
        </mxCell>
        <mxCell id="ciZTscVw7ovVxDEkbBO5-18" value="" style="endArrow=none;dashed=1;html=1;dashPattern=1 3;strokeWidth=2;entryX=0.5;entryY=1;entryDx=0;entryDy=0;exitX=0.5;exitY=0;exitDx=0;exitDy=0;" edge="1" parent="1" source="ciZTscVw7ovVxDEkbBO5-10" target="ciZTscVw7ovVxDEkbBO5-9">
          <mxGeometry width="50" height="50" relative="1" as="geometry">
            <mxPoint x="540" y="370" as="sourcePoint" />
            <mxPoint x="590" y="320" as="targetPoint" />
          </mxGeometry>
        </mxCell>
        <mxCell id="ciZTscVw7ovVxDEkbBO5-25" value="" style="endArrow=classic;html=1;entryX=1;entryY=0.5;entryDx=0;entryDy=0;exitX=0.5;exitY=1;exitDx=0;exitDy=0;" edge="1" parent="1" source="ciZTscVw7ovVxDEkbBO5-10" target="ciZTscVw7ovVxDEkbBO5-3">
          <mxGeometry width="50" height="50" relative="1" as="geometry">
            <mxPoint x="540" y="500" as="sourcePoint" />
            <mxPoint x="590" y="450" as="targetPoint" />
            <Array as="points">
              <mxPoint x="645" y="580" />
            </Array>
          </mxGeometry>
        </mxCell>
        <mxCell id="ciZTscVw7ovVxDEkbBO5-26" value="" style="endArrow=none;html=1;entryX=0.5;entryY=1;entryDx=0;entryDy=0;" edge="1" parent="1" target="ciZTscVw7ovVxDEkbBO5-5">
          <mxGeometry width="50" height="50" relative="1" as="geometry">
            <mxPoint x="230" y="797" as="sourcePoint" />
            <mxPoint x="370" y="500" as="targetPoint" />
            <Array as="points">
              <mxPoint x="370" y="797" />
            </Array>
          </mxGeometry>
        </mxCell>
        <mxCell id="ciZTscVw7ovVxDEkbBO5-27" value="kobject_init" style="rounded=0;whiteSpace=wrap;html=1;" vertex="1" parent="1">
          <mxGeometry x="850" y="260" width="100" height="40" as="geometry" />
        </mxCell>
        <mxCell id="ciZTscVw7ovVxDEkbBO5-28" value="kobject_init_internal" style="rounded=0;whiteSpace=wrap;html=1;" vertex="1" parent="1">
          <mxGeometry x="1010" y="260" width="140" height="40" as="geometry" />
        </mxCell>
        <mxCell id="ciZTscVw7ovVxDEkbBO5-29" value="kobject_add_varg" style="rounded=0;whiteSpace=wrap;html=1;" vertex="1" parent="1">
          <mxGeometry x="850" y="350" width="100" height="40" as="geometry" />
        </mxCell>
        <mxCell id="ciZTscVw7ovVxDEkbBO5-30" value="kobject_add_internal" style="rounded=0;whiteSpace=wrap;html=1;" vertex="1" parent="1">
          <mxGeometry x="1010" y="350" width="140" height="40" as="geometry" />
        </mxCell>
        <mxCell id="ciZTscVw7ovVxDEkbBO5-31" value="" style="endArrow=classic;html=1;entryX=0.5;entryY=0;entryDx=0;entryDy=0;exitX=1;exitY=0.5;exitDx=0;exitDy=0;" edge="1" parent="1" source="ciZTscVw7ovVxDEkbBO5-7" target="ciZTscVw7ovVxDEkbBO5-27">
          <mxGeometry width="50" height="50" relative="1" as="geometry">
            <mxPoint x="830" y="390" as="sourcePoint" />
            <mxPoint x="880" y="340" as="targetPoint" />
            <Array as="points">
              <mxPoint x="900" y="200" />
            </Array>
          </mxGeometry>
        </mxCell>
        <mxCell id="ciZTscVw7ovVxDEkbBO5-32" value="" style="endArrow=classic;html=1;exitX=0.5;exitY=1;exitDx=0;exitDy=0;" edge="1" parent="1" source="ciZTscVw7ovVxDEkbBO5-29">
          <mxGeometry width="50" height="50" relative="1" as="geometry">
            <mxPoint x="830" y="390" as="sourcePoint" />
            <mxPoint x="640" y="310" as="targetPoint" />
            <Array as="points">
              <mxPoint x="900" y="450" />
              <mxPoint x="790" y="450" />
              <mxPoint x="790" y="310" />
            </Array>
          </mxGeometry>
        </mxCell>
        <mxCell id="ciZTscVw7ovVxDEkbBO5-33" value="" style="endArrow=none;dashed=1;html=1;dashPattern=1 3;strokeWidth=2;entryX=0.5;entryY=1;entryDx=0;entryDy=0;exitX=0.5;exitY=0;exitDx=0;exitDy=0;" edge="1" parent="1" source="ciZTscVw7ovVxDEkbBO5-29" target="ciZTscVw7ovVxDEkbBO5-27">
          <mxGeometry width="50" height="50" relative="1" as="geometry">
            <mxPoint x="830" y="390" as="sourcePoint" />
            <mxPoint x="880" y="340" as="targetPoint" />
          </mxGeometry>
        </mxCell>
      </root>
    </mxGraphModel>
  </diagram>
</mxfile>
